<svg version="1.1" xmlns="http://www.w3.org/2000/svg" xmlns:xlink="http://www.w3.org/1999/xlink" width="22.40001" height="22.13846" viewBox="0,0,22.40001,22.13846"><g transform="translate(-227.7,-169.92821)"><g data-paper-data="{&quot;isPaintingLayer&quot;:true}" fill-rule="nonzero" stroke-linecap="butt" stroke-linejoin="miter" stroke-miterlimit="10" stroke-dasharray="" stroke-dashoffset="0" style="mix-blend-mode: normal"><path d="M250.10001,182.13333c0,5.30193 -4.5667,9.6 -10.2,9.6c-5.6333,0 -10.2,-4.29807 -10.2,-9.6c0,-5.30193 4.5667,-9.6 10.2,-9.6c5.6333,0 10.2,4.29807 10.2,9.6z" fill="#329900" stroke="#000000" stroke-width="0"/><path d="M232.4337,185.50471v-6.74275h14.93262v6.74275z" fill="#9966ff" stroke="#000000" stroke-width="2"/><path d="M249.1,180.99744c0,5.56108 -4.5667,10.06923 -10.2,10.06923c-5.6333,0 -10.2,-4.50815 -10.2,-10.06923c0,-5.56108 4.5667,-10.06923 10.2,-10.06923c5.6333,0 10.2,4.50815 10.2,10.06923z" fill="#9966ff" stroke="#392464" stroke-width="2"/></g></g></svg>